<?xml version="1.0" encoding="UTF-8" standalone="no"?>
<svg
   width="77.155998"
   height="57.970001"
   viewBox="0 0 77.155998 57.970001"
   version="1.1"
   id="svg8"
   xmlns="http://www.w3.org/2000/svg"
   xmlns:svg="http://www.w3.org/2000/svg">
  <defs
     id="defs12" />
  <g
     stroke="#363636"
     stroke-width="1.2"
     fill="none"
     fill-rule="evenodd"
     stroke-linecap="round"
     id="g6"
     transform="translate(-0.39999998,-0.88399998)">
    <path
       d="M 76.956,1.484 H 1 m 75.956,56.77 H 1 M 34.44,28.984 H 23.925 M 34.44,39.991 H 22.424 m 3.726,12.176 h 15.78 l -7.047,-12.2 h 4.66 l -6.32,-10.946 h 4.525 L 26.68,9.835 15.611,29.02 h 2.004 a 1.451,1.451 0 0 1 1.23,2.176 l -5.067,8.77 h 2.152 a 1.451,1.451 0 0 1 1.23,2.176 l -5.792,10.024 h 15.816 m -0.517,0.468 v 4.968 m 30.107,-4.968 4.833,4.686 4.821,-4.686 m 0,-44.914 -4.82,-4.674 -4.834,4.674"
       id="path2"
       clip-path="none" />
    <path
       stroke-dasharray="2"
       d="m 61.607,53.556 v -1.525 m 0,-3.296 V 47.21 m 0,-3.296 V 42.39 m 0,-3.297 v -1.525 m 0,-3.296 v -1.525 m 0,-3.296 v -1.525 m 0,-3.296 v -1.525 m 0,-3.295 v -1.526 m 0,-3.296 v -1.525 m 0,-3.296 V 8.642"
       id="path4"
       clip-path="none" />
  </g>
</svg>
