<?xml version="1.0" encoding="UTF-8" standalone="no"?>
<svg
   width="41.597645"
   height="59.628426"
   viewBox="0 0 41.597645 59.628426"
   version="1.1"
   id="svg6"
   xmlns="http://www.w3.org/2000/svg"
   xmlns:svg="http://www.w3.org/2000/svg">
  <defs
     id="defs10" />
  <g
     stroke="#363636"
     stroke-width="1.2"
     fill="none"
     fill-rule="evenodd"
     stroke-linecap="round"
     id="g4"
     transform="translate(-0.81985526,-0.84057441)">
    <path
       d="M 31.246,33.584 H 15.657 M 31.802,44.298 H 12.314 M 7.576,44.28 c 1.376,0 2.232,1.176 1.54,2.123 L 2,56.161 H 21.406 M 10.528,33.62 c 1.376,0 2.232,1.176 1.54,2.124 L 5.836,44.29 h 1.73 M 13.16,22.925 c 1.377,0 2.233,1.175 1.54,2.122 l -6.23,8.546 h 2.05 m 9.802,-21.346 h 8.72 L 21.652,1.869 14.145,12.229 H 15.53 M 31.802,44.28 h 6.04 L 30.453,33.62 m -1.057,-0.036 h 5.54 L 28.249,23.28 M 15.776,12.247 c 1.375,0 2.232,1.175 1.54,2.122 l -6.232,8.546 h 2.05 m 4.828,-0.009 h 13.63 L 24.905,12.602 M 21.89,56.161 H 41.295 L 33.37,44.3 M 21.434,56.407 v 3.462"
       id="path2"
       clip-path="none" />
  </g>
</svg>
