<?xml version="1.0" encoding="UTF-8" standalone="no"?>
<svg
   width="69.022003"
   height="59.799202"
   viewBox="0 0 69.022003 59.799202"
   version="1.1"
   id="svg8"
   xmlns="http://www.w3.org/2000/svg"
   xmlns:svg="http://www.w3.org/2000/svg">
  <defs
     id="defs12" />
  <g
     stroke="#363636"
     stroke-width="1.2"
     fill="none"
     fill-rule="evenodd"
     stroke-linecap="round"
     id="g6"
     transform="translate(-0.02799998,-0.67079824)">
    <path
       d="M 42.753,22.065 H 31.65 m 11.103,11.63 H 30.055 m 3.944,12.874 H 50.678 L 43.23,33.67 h 4.936 L 41.472,22.103 h 4.772 L 34.54,1.869 22.833,22.103 h 2.11 a 1.532,1.532 0 0 1 1.332,2.298 l -5.363,9.269 h 2.323 a 1.545,1.545 0 0 1 1.256,2.311 l -6.116,10.588 h 16.704 m -0.54,0.502 v 5.237 M 0.628,2.811 V 59.87 M 68.45,2.811 V 59.87 M 6.983,49.872 2.21,54.808 6.983,59.731 m 55.049,0 4.772,-4.923 -4.772,-4.936"
       id="path2"
       clip-path="none" />
    <path
       stroke-dasharray="2"
       d="m 6.594,54.971 h 1.557 m 3.366,0 h 1.557 m 3.366,0 h 1.558 m 3.366,0 h 1.557 m 3.379,0 h 1.545 m 3.378,0 h 1.557 m 3.366,0 h 1.558 m 3.366,0 h 1.557 m 3.366,0 h 1.557 m 3.366,0 h 1.558 m 3.366,0 h 1.557 m 3.366,0 h 1.557"
       id="path4"
       clip-path="none" />
  </g>
</svg>
