<?xml version="1.0" encoding="UTF-8" standalone="no"?>
<svg
   width="34.875355"
   height="59.877422"
   viewBox="0 0 34.875355 59.877422"
   version="1.1"
   id="svg8"
   xmlns="http://www.w3.org/2000/svg"
   xmlns:svg="http://www.w3.org/2000/svg">
  <defs
     id="defs12" />
  <g
     stroke="#363636"
     stroke-width="1.2"
     fill="none"
     fill-rule="evenodd"
     stroke-linecap="round"
     id="g6"
     transform="translate(-0.96099335,-0.59157842)">
    <path
       d="M 26.778,30.08 H 14.369 M 27.261,41.914 H 11.943 M 6.871,41.895 c 1.198,0 1.953,1.298 1.349,2.345 L 2,55.018 h 16.978"
       id="path2"
       clip-path="none" />
    <path
       d="m 8.652,30.12 c 1.198,0 1.953,1.298 1.349,2.344 l -5.445,9.44 h 2.315 m 4.086,-23.61 c 1.198,0 1.953,1.298 1.349,2.345 l -5.445,9.44 H 8.663 M 15.335,18.294 H 27.171 L 18.858,1.869 9.689,18.294 h 1.268 m 16.304,23.601 h 5.012 L 26.083,30.119 M 25.158,30.08 h 4.488 L 24.151,18.697 m -6.29,36.321 H 34.84 L 27.906,41.915 m -9.713,13.103 v 4.851"
       id="path4"
       clip-path="none" />
  </g>
</svg>
