<?xml version="1.0" encoding="UTF-8" standalone="no"?>
<svg
   width="89.039139"
   height="59.801678"
   viewBox="0 0 89.039139 59.801678"
   version="1.1"
   id="svg6"
   xmlns="http://www.w3.org/2000/svg"
   xmlns:svg="http://www.w3.org/2000/svg">
  <defs
     id="defs10" />
  <g
     stroke="#333333"
     stroke-width="1.2"
     fill="none"
     fill-rule="evenodd"
     stroke-linecap="round"
     id="g4"
     transform="translate(9.0432632e-4,-0.66832397)">
    <path
       d="M 42,27.52 H 36.743 M 42,39.218 H 36 M 36.666,52.87 H 47 L 42.384,39.206 h 3.055 L 41.295,27.463 h 2.95 L 36.994,7.869 29.742,27.463 h 2.387 c 0.249,0 0.42,0.513 0.288,0.92 l -3.855,10.823 h 2.478 c 0.25,0 0.42,0.513 0.289,0.92 L 27,52.87 H 37.334 M 16,43.37 h -4 m 6.199,9.5 H 22 l -5.152,-9.74 h 3.67 L 11.5,26.87 2.481,43.13 h 2.963 c 0.314,0 0.511,0.428 0.354,0.761 L 1,52.87 Z M 78.925,25.133 H 66.19 m 12.735,13.352 h -14.57 m 4.518,14.781 H 88 L 79.467,38.458 H 85.12 L 77.46,25.16 h 5.469 L 69.507,1.87 56.086,25.16 h 2.43 c 1.348,0 2.193,1.47 1.52,2.647 l -6.143,10.652 h 2.602 c 1.348,0 2.193,1.47 1.52,2.647 L 51,53.266 h 19.127 m -0.62,0.582 v 6.021 M 36.5,53.87 v 6 m -25,-6 v 6"
       id="path2"
       clip-path="none" />
  </g>
</svg>
