<svg xmlns="http://www.w3.org/2000/svg" xmlns:xlink="http://www.w3.org/1999/xlink" xml:space="preserve" width="38" height="24" version="1.1" viewBox="0 0 38 24">
  <defs>
    <style type="text/css">
      .str0 {stroke:#939598;stroke-width:0.2;stroke-linecap:round;stroke-linejoin:round;stroke-miterlimit:22.9256}
      .fil2 {fill:none;fill-rule:nonzero}
      .fil3 {fill:#32BCAD;fill-rule:nonzero}
      .fil4 {fill:#939598;fill-rule:nonzero}
      .fil1 {fill:white;fill-rule:nonzero}
      .fil0 {fill:black;fill-rule:nonzero;fill-opacity:0.070588}
    </style>
  </defs>
  <g>
    <path class="fil0" d="M35 0H3C1.3 0 0 1.3 0 3v18c0 1.7 1.4 3 3 3h32c1.7 0 3-1.3 3-3V3c0-1.7-1.4-3-3-3z"/>
    <path class="fil1" d="M35 1c1.1 0 2 .9 2 2v18c0 1.1-.9 2-2 2H3c-1.1 0-2-.9-2-2V3c0-1.1.9-2 2-2h32"/>
    <path class="fil2 str0" d="M16.5 15.8v-5.6c0-1 .8-1.9 1.9-1.9h1.6c1 0 1.9.9 1.9 1.9v1.2c0 1-.8 1.9-1.9 1.9h-2.3"/>
    <path class="fil2 str0" d="M22.5 8.3h.7c.4 0 .8.4.8.8v4.2"/>
    <path class="fil3" d="M23.8 7.6l-.3-.3c-.1-.1-.1-.2 0-.3l.3-.3c.1-.1.2-.1.3 0l.3.3c.1.1.1.2 0 .3l-.3.3c-.1.1-.2.1-.3 0z"/>
    <path class="fil2 str0" d="M25.5 8.3h.7c.4 0 .7.1 1 .4l1.7 1.7c.2.2.6.2.8 0l1.7-1.7c.3-.3.6-.4 1-.4h.6"/>
    <path class="fil2 str0" d="M25.5 13.2h.7c.4 0 .7-.1 1-.4l1.7-1.7c.2-.2.6-.2.8 0l1.7 1.7c.3.2.6.4 1 .4h.6"/>
    <path class="fil3" d="M12 14.2c-.4 0-.7-.1-1-.4l-1.4-1.4c-.1-.1-.3-.1-.4 0l-1.4 1.4c-.2.3-.6.4-.9.4h-.3l1.7 1.8c.6.5 1.5.5 2 0l1.8-1.8h-.1z"/>
    <path class="fil3" d="M7 9.4c.4 0 .7.1 1 .4l1.4 1.4c.1.1.3.1.4 0l1.4-1.4c.2-.3.6-.4.9-.4h.2L10.5 7.6c-.5-.6-1.4-.6-2 0L6.7 9.4H7z"/>
    <path class="fil3" d="M13.7 10.8l-1.1-1.1-.1.1h-.5c-.2 0-.5.1-.7.3l-1.4 1.4c-.1.1-.3.2-.5.2-.2 0-.3-.1-.5-.2l-1.4-1.4c-.2-.2-.4-.3-.7-.3h-.6l-1.1 1.1c-.6.5-.6 1.4 0 2l1.1 1.1h.6c.3 0 .5-.1.7-.3l1.4-1.4c.3-.2.7-.2 1 0l1.4 1.4c.2.2.4.3.7.3h.5l1.1-1.1c.6-.6.6-1.5 0-2z"/>
    <path class="fil4" d="M18 15.3c-.1 0-.2 0-.3.1v.3c.1 0 .1 0 .2 0 .2 0 .3-.1.3-.2 0-.1-.1-.2-.2-.2zm-.3.6v-.7h.4c.1 0 .2.1.2.2 0 .1 0 .2-.1.2-.1 0-.1 0-.2 0 0 0-.1 0-.2 0v.3h-.1z"/>
    <path class="fil4" d="M18.5 15.3c-.2 0-.3.1-.3.2 0 .2.1.2.3.2.2 0 .3-.1.3-.2 0-.2-.1-.2-.3-.2zm.2.4c-.1.1-.1.1-.2.1s-.2 0-.2-.1c-.1 0-.1-.1-.1-.2 0-.1 0-.2.1-.2.1-.1.1-.1.2-.1s.2 0 .2.1c.1 0 .1.1.1.2 0 .1 0 .2-.1.2z"/>
  </g>
</svg>
